<?xml version="1.0" encoding="UTF-8" standalone="no"?>
<!DOCTYPE svg PUBLIC "-//W3C//DTD SVG 1.1//EN"
 "http://www.w3.org/Graphics/SVG/1.1/DTD/svg11.dtd">
<!-- Generated by graphviz version 2.43.0 (0)
 -->
<!-- Title: ER Pages: 1 -->
<svg width="305pt" height="538pt"
 viewBox="0.00 0.00 305.00 538.00" xmlns="http://www.w3.org/2000/svg" xmlns:xlink="http://www.w3.org/1999/xlink">
<g id="graph0" class="graph" transform="scale(1 1) rotate(0) translate(4 534)">
<title>ER</title>
<polygon fill="white" stroke="transparent" points="-4,4 -4,-534 301,-534 301,4 -4,4"/>
<!-- Cliente -->
<g id="node1" class="node">
<title>Cliente</title>
<polygon fill="none" stroke="black" points="26.5,-434.5 26.5,-529.5 82.5,-529.5 82.5,-434.5 26.5,-434.5"/>
<text text-anchor="middle" x="54.5" y="-517.5" font-family="Times,serif" font-size="10.00">Cliente</text>
<polyline fill="none" stroke="black" points="26.5,-510.5 82.5,-510.5 "/>
<text text-anchor="middle" x="54.5" y="-498.5" font-family="Times,serif" font-size="10.00">id PK</text>
<polyline fill="none" stroke="black" points="26.5,-491.5 82.5,-491.5 "/>
<text text-anchor="middle" x="54.5" y="-479.5" font-family="Times,serif" font-size="10.00">codigo</text>
<polyline fill="none" stroke="black" points="26.5,-472.5 82.5,-472.5 "/>
<text text-anchor="middle" x="54.5" y="-460.5" font-family="Times,serif" font-size="10.00">nombre</text>
<polyline fill="none" stroke="black" points="26.5,-453.5 82.5,-453.5 "/>
<text text-anchor="middle" x="54.5" y="-441.5" font-family="Times,serif" font-size="10.00">version</text>
</g>
<!-- Producto -->
<g id="node5" class="node">
<title>Producto</title>
<polygon fill="none" stroke="black" points="13,-283.5 13,-397.5 96,-397.5 96,-283.5 13,-283.5"/>
<text text-anchor="middle" x="54.5" y="-385.5" font-family="Times,serif" font-size="10.00">Producto</text>
<polyline fill="none" stroke="black" points="13,-378.5 96,-378.5 "/>
<text text-anchor="middle" x="54.5" y="-366.5" font-family="Times,serif" font-size="10.00">id PK</text>
<polyline fill="none" stroke="black" points="13,-359.5 96,-359.5 "/>
<text text-anchor="middle" x="54.5" y="-347.5" font-family="Times,serif" font-size="10.00">codigo</text>
<polyline fill="none" stroke="black" points="13,-340.5 96,-340.5 "/>
<text text-anchor="middle" x="54.5" y="-328.5" font-family="Times,serif" font-size="10.00">descripcion</text>
<polyline fill="none" stroke="black" points="13,-321.5 96,-321.5 "/>
<text text-anchor="middle" x="54.5" y="-309.5" font-family="Times,serif" font-size="10.00">cliente_id FK</text>
<polyline fill="none" stroke="black" points="13,-302.5 96,-302.5 "/>
<text text-anchor="middle" x="54.5" y="-290.5" font-family="Times,serif" font-size="10.00">peso</text>
</g>
<!-- Cliente&#45;&gt;Producto -->
<g id="edge1" class="edge">
<title>Cliente&#45;&gt;Producto</title>
<path fill="none" stroke="black" d="M54.5,-434.16C54.5,-425.65 54.5,-416.63 54.5,-407.68"/>
<polygon fill="black" stroke="black" points="58,-407.65 54.5,-397.65 51,-407.65 58,-407.65"/>
</g>
<!-- Proveedor -->
<g id="node2" class="node">
<title>Proveedor</title>
<polygon fill="none" stroke="black" points="228,-434.5 228,-529.5 297,-529.5 297,-434.5 228,-434.5"/>
<text text-anchor="middle" x="262.5" y="-517.5" font-family="Times,serif" font-size="10.00">Proveedor</text>
<polyline fill="none" stroke="black" points="228,-510.5 297,-510.5 "/>
<text text-anchor="middle" x="262.5" y="-498.5" font-family="Times,serif" font-size="10.00">id PK</text>
<polyline fill="none" stroke="black" points="228,-491.5 297,-491.5 "/>
<text text-anchor="middle" x="262.5" y="-479.5" font-family="Times,serif" font-size="10.00">codigo</text>
<polyline fill="none" stroke="black" points="228,-472.5 297,-472.5 "/>
<text text-anchor="middle" x="262.5" y="-460.5" font-family="Times,serif" font-size="10.00">nombre</text>
<polyline fill="none" stroke="black" points="228,-453.5 297,-453.5 "/>
<text text-anchor="middle" x="262.5" y="-441.5" font-family="Times,serif" font-size="10.00">version</text>
</g>
<!-- UnidadMedida -->
<g id="node3" class="node">
<title>UnidadMedida</title>
<polygon fill="none" stroke="black" points="117,-434.5 117,-529.5 210,-529.5 210,-434.5 117,-434.5"/>
<text text-anchor="middle" x="163.5" y="-517.5" font-family="Times,serif" font-size="10.00">UnidadMedida</text>
<polyline fill="none" stroke="black" points="117,-510.5 210,-510.5 "/>
<text text-anchor="middle" x="163.5" y="-498.5" font-family="Times,serif" font-size="10.00">id PK</text>
<polyline fill="none" stroke="black" points="117,-491.5 210,-491.5 "/>
<text text-anchor="middle" x="163.5" y="-479.5" font-family="Times,serif" font-size="10.00">codigo</text>
<polyline fill="none" stroke="black" points="117,-472.5 210,-472.5 "/>
<text text-anchor="middle" x="163.5" y="-460.5" font-family="Times,serif" font-size="10.00">descripcion</text>
<polyline fill="none" stroke="black" points="117,-453.5 210,-453.5 "/>
<text text-anchor="middle" x="163.5" y="-441.5" font-family="Times,serif" font-size="10.00">version</text>
</g>
<!-- Insumo -->
<g id="node4" class="node">
<title>Insumo</title>
<polygon fill="none" stroke="black" points="121,-283.5 121,-397.5 206,-397.5 206,-283.5 121,-283.5"/>
<text text-anchor="middle" x="163.5" y="-385.5" font-family="Times,serif" font-size="10.00">Insumo</text>
<polyline fill="none" stroke="black" points="121,-378.5 206,-378.5 "/>
<text text-anchor="middle" x="163.5" y="-366.5" font-family="Times,serif" font-size="10.00">id PK</text>
<polyline fill="none" stroke="black" points="121,-359.5 206,-359.5 "/>
<text text-anchor="middle" x="163.5" y="-347.5" font-family="Times,serif" font-size="10.00">codigo</text>
<polyline fill="none" stroke="black" points="121,-340.5 206,-340.5 "/>
<text text-anchor="middle" x="163.5" y="-328.5" font-family="Times,serif" font-size="10.00">nombre</text>
<polyline fill="none" stroke="black" points="121,-321.5 206,-321.5 "/>
<text text-anchor="middle" x="163.5" y="-309.5" font-family="Times,serif" font-size="10.00">unidad_id FK</text>
<polyline fill="none" stroke="black" points="121,-302.5 206,-302.5 "/>
<text text-anchor="middle" x="163.5" y="-290.5" font-family="Times,serif" font-size="10.00">peso</text>
</g>
<!-- UnidadMedida&#45;&gt;Insumo -->
<g id="edge5" class="edge">
<title>UnidadMedida&#45;&gt;Insumo</title>
<path fill="none" stroke="black" d="M163.5,-434.16C163.5,-425.65 163.5,-416.63 163.5,-407.68"/>
<polygon fill="black" stroke="black" points="167,-407.65 163.5,-397.65 160,-407.65 167,-407.65"/>
</g>
<!-- ProductoInsumo -->
<g id="node7" class="node">
<title>ProductoInsumo</title>
<polygon fill="none" stroke="black" points="113,-151.5 113,-246.5 214,-246.5 214,-151.5 113,-151.5"/>
<text text-anchor="middle" x="163.5" y="-234.5" font-family="Times,serif" font-size="10.00">ProductoInsumo</text>
<polyline fill="none" stroke="black" points="113,-227.5 214,-227.5 "/>
<text text-anchor="middle" x="163.5" y="-215.5" font-family="Times,serif" font-size="10.00">id PK</text>
<polyline fill="none" stroke="black" points="113,-208.5 214,-208.5 "/>
<text text-anchor="middle" x="163.5" y="-196.5" font-family="Times,serif" font-size="10.00">producto_id FK</text>
<polyline fill="none" stroke="black" points="113,-189.5 214,-189.5 "/>
<text text-anchor="middle" x="163.5" y="-177.5" font-family="Times,serif" font-size="10.00">insumo_id FK</text>
<polyline fill="none" stroke="black" points="113,-170.5 214,-170.5 "/>
<text text-anchor="middle" x="163.5" y="-158.5" font-family="Times,serif" font-size="10.00">cantidad</text>
</g>
<!-- Insumo&#45;&gt;ProductoInsumo -->
<g id="edge4" class="edge">
<title>Insumo&#45;&gt;ProductoInsumo</title>
<path fill="none" stroke="black" d="M163.5,-283.16C163.5,-274.47 163.5,-265.48 163.5,-256.78"/>
<polygon fill="black" stroke="black" points="167,-256.72 163.5,-246.72 160,-256.72 167,-256.72"/>
</g>
<!-- Subproducto -->
<g id="node6" class="node">
<title>Subproducto</title>
<polygon fill="none" stroke="black" points="0,-151.5 0,-246.5 95,-246.5 95,-151.5 0,-151.5"/>
<text text-anchor="middle" x="47.5" y="-234.5" font-family="Times,serif" font-size="10.00">Subproducto</text>
<polyline fill="none" stroke="black" points="0,-227.5 95,-227.5 "/>
<text text-anchor="middle" x="47.5" y="-215.5" font-family="Times,serif" font-size="10.00">id PK</text>
<polyline fill="none" stroke="black" points="0,-208.5 95,-208.5 "/>
<text text-anchor="middle" x="47.5" y="-196.5" font-family="Times,serif" font-size="10.00">producto_id FK</text>
<polyline fill="none" stroke="black" points="0,-189.5 95,-189.5 "/>
<text text-anchor="middle" x="47.5" y="-177.5" font-family="Times,serif" font-size="10.00">codigo</text>
<polyline fill="none" stroke="black" points="0,-170.5 95,-170.5 "/>
<text text-anchor="middle" x="47.5" y="-158.5" font-family="Times,serif" font-size="10.00">peso</text>
</g>
<!-- Producto&#45;&gt;Subproducto -->
<g id="edge2" class="edge">
<title>Producto&#45;&gt;Subproducto</title>
<path fill="none" stroke="black" d="M51.67,-283.16C51.24,-274.47 50.79,-265.48 50.35,-256.78"/>
<polygon fill="black" stroke="black" points="53.84,-256.53 49.84,-246.72 46.85,-256.88 53.84,-256.53"/>
</g>
<!-- Producto&#45;&gt;ProductoInsumo -->
<g id="edge3" class="edge">
<title>Producto&#45;&gt;ProductoInsumo</title>
<path fill="none" stroke="black" d="M96.02,-286.36C104.17,-275.93 112.73,-264.98 120.92,-254.5"/>
<polygon fill="black" stroke="black" points="123.69,-256.64 127.09,-246.6 118.17,-252.33 123.69,-256.64"/>
</g>
<!-- AuditLog -->
<g id="node8" class="node">
<title>AuditLog</title>
<polygon fill="none" stroke="black" points="9.5,-0.5 9.5,-114.5 85.5,-114.5 85.5,-0.5 9.5,-0.5"/>
<text text-anchor="middle" x="47.5" y="-102.5" font-family="Times,serif" font-size="10.00">AuditLog</text>
<polyline fill="none" stroke="black" points="9.5,-95.5 85.5,-95.5 "/>
<text text-anchor="middle" x="47.5" y="-83.5" font-family="Times,serif" font-size="10.00">id PK</text>
<polyline fill="none" stroke="black" points="9.5,-76.5 85.5,-76.5 "/>
<text text-anchor="middle" x="47.5" y="-64.5" font-family="Times,serif" font-size="10.00">table_name</text>
<polyline fill="none" stroke="black" points="9.5,-57.5 85.5,-57.5 "/>
<text text-anchor="middle" x="47.5" y="-45.5" font-family="Times,serif" font-size="10.00">row_id</text>
<polyline fill="none" stroke="black" points="9.5,-38.5 85.5,-38.5 "/>
<text text-anchor="middle" x="47.5" y="-26.5" font-family="Times,serif" font-size="10.00">action</text>
<polyline fill="none" stroke="black" points="9.5,-19.5 85.5,-19.5 "/>
<text text-anchor="middle" x="47.5" y="-7.5" font-family="Times,serif" font-size="10.00">timestamp</text>
</g>
<!-- Subproducto&#45;&gt;AuditLog -->
</g>
</svg>
